<svg xmlns="http://www.w3.org/2000/svg" fill="none" viewBox="0 0 177 24" height="24" width="177">
<path fill="#191B24" d="M20.884 17.1712C20.8508 19.0276 20.0884 20.7513 18.6961 21.9447C17.3039 23.1381 15.4475 23.8011 13.3923 23.8011L0 23.7679L0.033141 0L12.3646 0.0331511C16.4088 0.0331511 19.4585 2.68508 19.4585 6.23204C19.4585 8.15469 18.5304 9.97787 16.9724 11.1049C19.326 12.1326 20.884 14.5525 20.884 17.1712ZM14.0552 6.92816C14.0552 6.23203 13.79 5.60219 13.2928 5.1381C12.7624 4.67401 12.0663 4.44198 11.3038 4.44198L5.13812 4.40884V9.41435H11.3038C12.8287 9.41435 14.0552 8.32043 14.0552 6.92816ZM5.10497 19.3922H12.2983C13.1933 19.3922 13.9889 19.0939 14.5856 18.5304C15.1823 18 15.5138 17.2707 15.5138 16.5083C15.5138 14.884 14.1547 13.6243 12.3315 13.6243H5.10497V19.3922Z" clip-rule="evenodd" fill-rule="evenodd"></path>
<path fill="#191B24" d="M28.3098 14.1547L39.2158 14.1879V9.61328L28.3098 9.58014V4.64092H40.4424V0.0663441L23.0722 0.0332031L23.0391 23.8343L40.575 23.8674L40.6081 19.2597H28.2766L28.3098 14.1547Z"></path>
<path fill="#191B24" d="M42.6289 4.64098L49.8554 4.67414L49.8223 23.8675H55.0598L55.1261 4.67414H62.3195V0.0995574L42.6289 0.0664062V4.64098Z"></path>
<path fill="#191B24" d="M64.3418 4.70733H71.5683L71.5352 23.9007L76.8059 23.9338L76.839 4.70733L84.0324 4.74049V0.132761L64.3418 0.0996094V4.70733Z"></path>
<path fill="#191B24" d="M91.5578 14.2873H102.464V9.71272H91.5578V4.74036L103.69 4.7735V0.165771H86.3203L86.2871 23.9337L103.823 23.9668L103.856 19.3922L91.5247 19.3591L91.5578 14.2873Z"></path>
<path fill="#191B24" d="M127.59 24H120.993L114.629 15.4476H111.347V24L106.076 23.9669L106.142 0.198975H117.678C120.065 0.198975 122.253 0.994547 123.877 2.41996C125.502 3.84537 126.397 5.80117 126.397 7.92271C126.397 11.2045 124.109 14.0222 120.662 15.0498L127.59 24ZM111.38 11.105L117.546 11.1382C119.535 11.1382 121.026 9.74591 121.026 7.95585C121.06 6.13265 119.535 4.77355 117.546 4.77355H111.38V11.105Z" clip-rule="evenodd" fill-rule="evenodd"></path>
<path fill="#191B24" d="M148.907 12.4309H144.299V16.3425H148.907C150.133 16.3425 151.094 15.4806 151.094 14.3867C151.094 13.2928 150.166 12.4309 148.907 12.4309Z"></path>
<path fill="#191B24" d="M150.232 8.71839C150.232 7.72391 149.404 6.99463 148.31 6.99463H144.299V10.4421H148.31C149.371 10.4421 150.232 9.71286 150.232 8.71839Z"></path>
<path fill="#191B24" d="M176.388 12.0994C176.388 18.4641 171.25 23.6353 164.885 23.6022L142.94 23.569C136.576 23.569 131.471 18.3978 131.471 12C131.471 5.63537 136.642 0.464111 142.973 0.464111L164.918 0.497262C171.283 0.530412 176.421 5.70166 176.388 12.0994ZM153.813 14.7845C153.813 13.1271 152.719 11.6685 151.128 11.2376C152.189 10.7403 152.951 9.61327 152.951 8.32045C152.985 6.33151 151.228 4.87294 148.94 4.87294H141.747L141.714 18.4641H149.537C151.957 18.4641 153.813 16.9392 153.813 14.7845ZM166.012 16.2762H158.554L158.587 12.7624H165.183V10.5746L158.587 10.5414V7.09393L165.913 7.12707V4.9061H155.935L155.902 18.4641L166.012 18.4972V16.2762Z" clip-rule="evenodd" fill-rule="evenodd"></path>
</svg>
